HIERARCHY
ROOT hip
{
	OFFSET 0.000000 0.000000 0.000000 
	CHANNELS 6 Xposition Yposition Zposition Xrotation Zrotation Yrotation
	JOINT abdomen
	{
		OFFSET 0.000000 3.402643 0.000000 
		CHANNELS 3 Xrotation Zrotation Yrotation
		JOINT chest
		{
			OFFSET 0.000000 8.438565 -0.680529 
			CHANNELS 3 Xrotation Zrotation Yrotation
			JOINT neck
			{
				OFFSET 0.000000 10.207942 -0.272212 
				CHANNELS 3 Xrotation Zrotation Yrotation
				JOINT head
				{
					OFFSET 0.000000 3.130431 0.000000 
					CHANNELS 3 Xrotation Zrotation Yrotation
					End Site
					{
						OFFSET 0.000000 3.130435 0.000000 
					}
				}
			}
			JOINT lCollar
			{
				OFFSET 3.470700 6.669187 -0.816635 
				CHANNELS 3 Yrotation Zrotation Xrotation
				JOINT lShldr
				{
					OFFSET 3.198488 0.000000 0.000000 
					CHANNELS 3 Zrotation Yrotation Xrotation
					JOINT lForeArm
					{
						OFFSET 10.139888 0.000000 0.000000 
						CHANNELS 3 Yrotation Zrotation Xrotation
						JOINT lHand
						{
							OFFSET 8.370511 0.000000 0.000000 
							CHANNELS 3 Zrotation Yrotation Xrotation
							End Site
							{
								OFFSET 4.083176 0.000000 0.000000 
							}
						}
					}
				}
			}
			JOINT rCollar
			{
				OFFSET -3.470700 6.669187 -0.816635 
				CHANNELS 3 Yrotation Zrotation Xrotation
				JOINT rShldr
				{
					OFFSET -3.198488 0.000000 0.000000 
					CHANNELS 3 Zrotation Yrotation Xrotation
					JOINT rForeArm
					{
						OFFSET -10.139888 0.000000 0.000000 
						CHANNELS 3 Yrotation Zrotation Xrotation
						JOINT rHand
						{
							OFFSET -8.370511 0.000000 0.000000 
							CHANNELS 3 Zrotation Yrotation Xrotation
							End Site
							{
								OFFSET -4.083176 0.000000 0.000000 
							}
						}
					}
				}
			}
		}
	}
	JOINT lThigh
	{
		OFFSET 5.308129 -1.633274 1.361059 
		CHANNELS 3 Xrotation Zrotation Yrotation
		JOINT lShin
		{
			OFFSET -2.041588 -20.007561 0.000000 
			CHANNELS 3 Xrotation Zrotation Yrotation
			JOINT lFoot
			{
				OFFSET 0.000000 -19.190928 -1.224953 
				CHANNELS 3 Xrotation Yrotation Zrotation
				End Site
				{
					OFFSET 0.000000 -2.449906 4.627600 
				}
			}
		}
	}
	JOINT rThigh
	{
		OFFSET -5.308129 -1.633274 1.361059 
		CHANNELS 3 Xrotation Zrotation Yrotation
		JOINT rShin
		{
			OFFSET 2.041588 -20.007561 0.000000 
			CHANNELS 3 Xrotation Zrotation Yrotation
			JOINT rFoot
			{
				OFFSET 0.000000 -19.190928 -1.224953 
				CHANNELS 3 Xrotation Yrotation Zrotation
				End Site
				{
					OFFSET 0.000000 -2.449906 4.627600 
				}
			}
		}
	}
}
MOTION
Frames: 18
Frame Time: 0.033333
0.046648 43.352982 0.046648 -0.010809 -0.017476 -26.523439 25.005438 6.641393 -18.310284 1.219345 -0.078113 0.996093 -8.544920 -0.009766 -0.009767 19.799641 16.861872 47.851227 1.992188 -2.001953 0.000341 -6.873009 -49.258854 -30.873322 -46.276134 -0.600172 8.546262 -37.529163 -54.123917 -161.582092 -2.001953 1.992188 0.000000 -31.083178 135.327133 -91.168083 54.416676 0.529221 8.603282 13.104499 -54.102139 -39.577980 -27.576073 22.028532 15.224316 23.229174 -1.459895 -2.041651 8.016790 -6.673726 -10.469345 7.681763 -17.123859 -13.610672 22.950464 1.412299 1.960032 -22.206377 -16.149578 16.796755 
0.046648 43.282848 0.046648 -0.010809 -0.017476 -26.523439 25.005438 6.641393 -18.310284 1.219345 -0.078113 0.996093 -8.544920 -0.009766 -0.009767 19.799641 16.861872 47.851227 1.992188 -2.001953 0.000341 -6.873009 -49.258854 -30.873322 -46.276134 -0.600172 8.546262 -37.529163 -54.123917 -161.582092 -2.001953 1.992188 0.000000 -31.083178 135.327133 -91.168083 54.416676 0.529221 8.603282 13.104499 -54.102139 -39.577980 -27.576073 22.028532 15.224316 23.229174 -1.459895 -2.041651 8.016788 -6.673727 -10.469344 7.681763 -17.123859 -13.610672 22.950464 1.412299 1.960032 -22.206375 -16.149578 16.796753 
0.046648 43.212711 0.046648 -0.166919 -0.079175 -25.732450 25.377598 5.977342 -16.449036 1.219345 -0.078113 0.996093 -8.544920 -0.009766 -0.009767 18.230377 16.478273 48.375137 1.992188 -2.001953 0.000341 -18.569921 -45.399551 -16.553259 -50.893692 -0.579145 8.586669 -34.509335 -51.671318 -156.432388 -2.001953 1.992188 0.000000 138.728867 44.765877 80.499268 58.996956 0.511939 8.641385 10.759004 -55.101070 -35.278755 -28.219469 22.036814 15.549788 24.041132 -1.426718 -2.116699 8.021995 -7.007657 -10.010961 7.621783 -17.044374 -13.733629 23.870340 1.383118 2.021698 -22.600775 -17.178165 16.759737 
0.046648 43.142582 0.046648 -0.328854 -0.132823 -24.941492 25.730833 5.302752 -14.594943 1.219345 -0.078113 0.996093 -8.544920 -0.009766 -0.009767 16.656185 16.100882 48.912422 1.992188 -2.001953 0.000341 -27.871887 -39.841431 -4.532605 -55.519482 -0.560022 8.630805 -31.321770 -49.386234 -151.336609 -2.001953 1.992188 0.000000 128.720139 43.816822 72.347183 63.576473 0.500495 8.690797 8.240695 -55.995327 -30.812828 -28.843340 22.064644 15.873487 24.872713 -1.407342 -2.166003 8.004376 -7.283184 -9.558116 7.575796 -16.980364 -13.859076 24.780645 1.344104 2.080555 -22.991419 -18.174145 16.723978 
0.041639 42.959801 0.041639 -0.649888 -0.243117 -22.773674 27.050953 3.079826 -8.654660 2.455745 -0.146392 2.031244 -8.544920 -0.009766 -0.009767 13.233835 14.986668 48.855347 1.992188 -2.001953 0.000341 -40.185497 -28.410511 9.517949 -58.489716 -0.541857 8.658362 -30.155634 -43.086521 -136.597244 -2.001953 1.992188 0.000000 109.711159 38.809063 54.714622 71.474548 0.485662 8.773033 2.285488 -55.810612 -21.749779 -29.739893 21.642483 16.247223 25.616642 -1.378050 -2.208738 8.406934 -7.776802 -8.533468 8.237328 -16.420048 -14.332114 25.572454 1.324705 2.136914 -23.486429 -20.631317 16.503811 
0.036631 42.777039 0.036631 -0.989610 -0.329092 -20.596077 28.128023 0.741312 -2.783349 3.688674 -0.234042 3.056655 -8.544920 -0.009766 -0.009767 9.830418 13.869052 48.850075 1.992188 -2.001953 0.000341 -48.339058 -15.115733 19.656317 -61.470501 -0.531966 8.687459 -27.117777 -37.170853 -122.979675 -2.001953 1.992188 0.000000 94.680878 30.138664 41.134274 79.381065 0.474753 8.859231 -3.497274 -55.103477 -12.841827 -30.632040 21.227167 16.609440 26.340981 -1.353255 -2.241165 8.829592 -8.241267 -7.536601 8.894582 -15.867839 -14.788476 26.375044 1.295323 2.172047 -23.996023 -23.095539 16.243856 
0.036631 42.809547 0.036631 -1.378565 -0.383347 -16.777742 28.811735 -2.482038 4.652525 5.054527 -0.321400 4.199262 -8.544920 -0.009766 -0.009767 5.618680 11.468764 46.099392 1.992188 -2.001953 0.000341 -56.565891 -7.217092 19.256763 -49.134163 -0.583444 8.567443 -30.686523 -23.955235 -103.215096 -2.001953 1.992188 0.000000 84.500084 16.210999 26.824341 84.173325 0.475362 8.906166 -8.822870 -49.588692 -5.942638 -30.670530 19.644651 16.439165 24.834118 -1.397530 -2.162249 10.371745 -8.433348 -6.176091 11.361113 -14.214315 -15.746940 24.731298 1.353744 2.079942 -23.830568 -26.854774 15.642760 
0.036631 42.842045 0.036631 -1.768874 -0.418744 -12.959347 29.060284 -5.768639 12.083370 6.424840 -0.427821 5.341939 -8.544920 -0.009766 -0.009767 1.554811 8.876524 43.540432 1.992188 -2.001953 0.000341 -64.769180 0.542303 17.730124 -36.813427 -0.663519 8.459956 -29.315493 -10.442228 -85.689468 -2.001953 1.992188 0.000000 78.371407 0.591597 15.659611 88.965446 0.487874 8.961089 -12.662152 -43.753578 -0.462676 -30.701319 18.045143 16.254448 23.336725 -1.460088 -2.047323 11.916541 -8.582976 -4.831750 13.771926 -12.535305 -16.616241 23.087191 1.402474 1.984782 -23.735310 -30.630386 15.046662 
0.036631 42.832043 0.036631 -2.075104 -0.365609 -9.863516 28.888124 -8.490901 18.094482 7.483152 -0.514550 6.201360 -8.544920 -0.009766 -0.009767 -0.983099 6.951010 39.546864 1.992188 -2.001953 0.000341 -52.309925 4.865794 27.610872 -19.878889 -0.799461 8.350488 -30.473753 -14.183843 -103.811203 -2.001953 1.992188 0.000000 78.791222 -3.077406 5.965172 75.047234 0.481733 8.809282 -11.819116 -32.674931 -0.355349 -30.485249 16.579157 16.120779 21.887659 -1.498659 -1.958865 13.136407 -9.198029 -3.721223 15.538321 -11.099867 -17.314814 21.706051 1.447962 1.911289 -23.666424 -33.612572 14.502194 
0.036635 42.822029 0.036635 -2.377635 -0.290933 -6.757923 28.420118 -11.191972 24.168243 8.538754 -0.600865 7.070637 -8.544920 -0.009766 -0.009767 -3.371785 4.854220 35.655331 1.992188 -2.001953 0.000341 -39.237026 6.882642 38.249985 -2.948806 -0.962413 8.280472 -30.356943 -18.101387 -122.225044 -2.001953 1.992188 0.000000 79.822861 -6.614752 -3.815184 61.125618 0.509465 8.668326 -11.042637 -21.594378 -0.093437 -30.273273 15.117290 15.970813 20.446533 -1.555967 -1.863239 14.361130 -9.796803 -2.612405 17.267208 -9.656199 -17.926168 20.315207 1.500067 1.798786 -23.651819 -36.624851 13.939580 
0.076703 42.674259 0.076703 -2.482339 -0.077725 -5.800789 28.126575 -12.225116 26.785152 8.893254 -0.629531 7.363693 -8.544920 -0.009766 -0.009767 -4.080824 4.023906 34.060875 1.992188 -2.001953 0.000341 -23.112947 7.790346 47.167545 14.477486 -1.139809 8.266257 -27.547575 -24.356512 -146.963608 -2.001953 1.992188 0.000000 81.236145 -9.844734 -7.509878 60.998741 0.506785 8.663406 -10.900928 -18.514454 0.346310 -30.837393 14.685320 15.871539 21.064241 -1.533891 -1.901879 14.367100 -9.858742 -2.317491 17.029339 -9.638174 -18.104885 21.422625 1.461229 1.869597 -24.259701 -37.860958 13.823093 
0.116774 42.526489 0.116774 -2.579079 0.126500 -4.843760 27.778975 -13.242412 29.408957 9.248652 -0.648449 7.666406 -8.544920 -0.009766 -0.009767 -4.768710 3.172707 32.487713 1.992188 -2.001953 0.000341 -7.063017 6.206074 55.989357 31.910797 -1.325782 8.298169 158.098190 -151.134521 6.789494 -2.001953 1.992188 0.000000 82.876747 -12.975794 -11.321991 60.871445 0.523622 8.668248 -10.725866 -15.423324 0.770087 -31.418928 14.251914 15.804102 21.691343 -1.514524 -1.941578 14.337314 -9.942703 -2.011772 16.779613 -9.636723 -18.278465 22.519690 1.421743 1.939397 -24.888084 -39.061462 13.709725 
0.171869 42.353714 0.171869 -2.615606 0.437852 -4.892658 27.660631 -13.376078 29.983387 9.229342 -0.648479 7.646876 -8.544920 -0.009766 -0.009767 -4.658213 2.792545 32.778175 1.992188 -2.001953 0.000341 7.217819 4.082578 62.803959 47.093353 -1.460883 8.373614 -14.853735 -30.481867 161.318146 -2.001953 1.992188 0.000000 83.913551 -14.156204 -11.889545 63.283684 0.494779 8.682698 -10.896564 -15.289377 2.068079 -32.190147 14.222742 15.690864 22.964714 -1.479354 -2.011927 13.900602 -9.508588 -2.104068 15.845214 -10.271816 -18.232857 24.397991 1.359410 2.083318 -25.653662 -39.443302 13.779983 
0.226964 42.180946 0.226964 -2.642058 0.739429 -4.941751 27.551453 -13.496535 30.567183 9.210032 -0.648508 7.627346 -8.544920 -0.009766 -0.009767 -4.551111 2.414505 33.080017 1.992188 -2.001953 0.000341 21.110989 0.376234 68.872711 62.273708 -1.580785 8.486924 -7.669283 -29.293192 135.747543 -2.001953 1.992188 0.000000 84.964302 -15.335554 -12.486811 65.704811 0.501209 8.714293 -11.055835 -15.153644 3.367385 -32.952858 14.194211 15.627126 24.207151 -1.436515 -2.117552 13.467847 -9.079369 -2.163382 14.907461 -10.906934 -18.157093 26.276628 1.295257 2.186436 -26.381529 -39.807117 13.897973 
0.279554 42.018173 0.279554 -2.651106 1.118380 -5.225517 27.573654 -13.303390 30.145760 9.095229 -0.638974 7.529696 -8.544920 -0.009766 -0.009767 -4.251335 2.208999 34.374950 1.992188 -2.001953 0.000341 30.398470 -1.880052 72.409981 72.478531 -1.636481 8.576406 -4.889537 -26.384184 119.703011 -2.001953 1.992188 0.000000 85.426201 -14.964352 -11.659063 67.149933 0.487364 8.724865 -11.346420 -15.570541 5.182756 -33.609676 14.186619 15.527888 25.342731 -1.397496 -2.179025 13.010882 -8.462423 -2.354620 13.932902 -11.698606 -18.020454 28.065468 1.236670 2.304193 -27.091856 -39.949474 13.983761 
0.332147 41.855408 0.332147 -2.673677 1.496961 -5.509498 27.594841 -13.108903 29.715181 8.970736 -0.629447 7.422283 -8.544920 -0.009766 -0.009767 -3.946154 1.999667 35.669598 1.992188 -2.001953 0.000341 39.538647 -4.673596 75.542610 82.672272 -1.679706 8.679237 -3.152964 -22.904203 104.233627 -2.001953 1.992188 0.000000 85.891121 -14.607845 -10.838607 68.584938 0.491426 8.744977 -11.652197 -15.973126 7.002042 -34.247715 14.160171 15.463573 26.467186 -1.371279 -2.251615 12.571732 -7.848201 -2.550823 12.934157 -12.477731 -17.847429 29.845629 1.167951 2.378982 -27.783617 -40.090408 14.099395 
0.402268 41.730206 0.402268 -2.714017 1.914943 -5.510601 27.665857 -13.054221 29.041574 8.970736 -0.629447 7.422283 -8.544920 -0.009766 -0.009767 -3.918505 1.960089 36.919796 1.992188 -2.001953 0.000341 42.578495 -4.368862 76.098869 85.628754 -1.690408 8.711369 -6.063092 -20.931013 101.596458 -2.001953 1.992188 0.000000 86.203766 -14.079953 -10.017769 69.336739 0.483672 8.753425 -11.757876 -15.942466 8.384637 -34.587502 13.904741 15.462998 27.025499 -1.333896 -2.282238 12.409806 -7.498805 -2.662817 12.243657 -13.055560 -17.709942 31.203505 1.109466 2.472181 -28.399313 -40.466442 14.072283 
0.472388 41.605015 0.472388 -2.753439 2.323203 -5.511980 27.734613 -12.996124 28.365536 8.970736 -0.629447 7.422283 -8.544920 -0.009766 -0.009767 -3.907377 1.911901 38.179409 1.992188 -2.001953 0.000341 45.608540 -4.086021 76.671814 88.585663 -1.699870 8.742611 -9.021586 -19.096703 98.890739 -2.001953 1.992188 0.000000 86.507553 -13.562715 -9.189440 70.088242 0.495045 8.761715 -11.863254 -15.897246 9.766281 -34.920601 13.651617 15.484247 27.574257 -1.304612 -2.294411 12.237207 -7.188875 -2.753615 11.551022 -13.641460 -17.557152 32.542099 1.041117 2.550938 -29.030752 -40.812538 14.061516 
